<svg xmlns="http://www.w3.org/2000/svg" width="1024" height="1024" viewBox="0 0 1000 1000"><rect width="1000" height="1000" fill="#F7F5F0"></rect><path d="M0.0 0.0L8.5 0.0L17.0 0.0L25.5 1.4L33.9 1.4L42.4 1.4L50.9 1.4L59.4 1.4L67.9 1.4L76.4 1.4L84.9 1.4L93.4 1.4L101.8 2.8L110.3 2.8L118.8 2.8L127.3 2.8L135.8 2.8L144.3 2.8L152.8 2.8L161.2 2.8L169.7 2.8L178.2 2.8L186.7 4.2L195.2 4.2L203.7 4.2L212.2 4.2L220.7 4.2L229.1 4.2L237.6 4.2L246.1 4.2L254.6 4.2L263.1 4.2L271.6 4.2L280.1 4.2L288.5 4.2L297.0 4.2L305.5 4.2L314.0 4.2L322.5 4.2L331.0 4.2L339.5 4.2L347.9 4.2L356.4 4.2L364.9 4.2L373.4 4.2L381.9 4.2L390.4 4.2L398.9 4.2L407.4 4.2L415.8 4.2L424.3 4.2L432.8 4.2L441.3 4.2L449.8 4.2L458.3 4.2L466.8 4.2L475.2 4.2L483.7 4.2L492.2 4.2L500.7 4.2L509.2 4.2L517.7 4.2L526.2 4.2L534.7 4.2L543.1 4.2L551.6 4.2L560.1 4.2L568.6 4.2L577.1 4.2L585.6 4.2L594.1 4.2L602.5 4.2L611.0 4.2L619.5 4.2L628.0 4.2L636.5 4.2L645.0 4.2L653.5 4.2L662.0 4.2L670.4 4.2L678.9 4.2L687.4 4.2L695.9 4.2L704.4 4.2L712.9 2.8L721.4 2.8L729.8 2.8L738.3 2.8L746.8 2.8L755.3 2.8L763.8 2.8L772.3 2.8L780.8 2.8L789.3 2.8L797.7 2.8L806.2 1.4L814.7 1.4L823.2 1.4L831.7 1.4L840.2 1.4L848.7 1.4L857.1 1.4L865.6 1.4L874.1 0.0L882.6 0.0L891.1 0.0L895.3 4.2L895.3 12.7L893.9 21.2L893.9 29.7L892.5 38.2L892.5 46.7L892.5 55.2L891.1 63.6L891.1 72.1L891.1 80.6L891.1 89.1L889.7 97.6L889.7 106.1L889.7 114.6L889.7 123.1L888.3 131.5L888.3 140.0L888.3 148.5L888.3 157.0L888.3 165.5L886.8 174.0L886.8 182.5L886.8 190.9L886.8 199.4L886.8 207.9L886.8 216.4L886.8 224.9L886.8 233.4L885.4 241.9L885.4 250.4L885.4 258.8L885.4 267.3L886.8 275.8L886.8 284.3L886.8 292.8L886.8 301.3L886.8 309.8L886.8 318.2L888.3 326.7L888.3 335.2L888.3 343.7L889.7 352.2L889.7 360.7L884.0 363.5L875.5 363.5L867.0 363.5L858.6 363.5L857.1 355.0L855.7 346.5L852.9 338.0L851.5 329.6L848.7 321.1L847.2 312.6L844.4 304.1L841.6 295.6L840.2 287.1L837.3 278.6L834.5 270.2L831.7 261.7L828.9 253.2L826.0 244.7L823.2 236.2L819.0 227.7L816.1 219.2L813.3 210.7L809.1 202.3L804.8 193.8L802.0 185.3L797.7 176.8L792.1 168.3L787.8 159.8L783.6 151.3L777.9 142.9L772.3 134.4L766.6 125.9L759.5 117.4L753.9 108.9L745.4 100.4L738.3 91.9L729.8 83.5L721.4 76.4L712.9 69.3L704.4 63.6L695.9 58.0L687.4 53.7L678.9 49.5L670.4 46.7L662.0 42.4L653.5 39.6L645.0 38.2L636.5 35.4L628.0 33.9L619.5 32.5L611.0 31.1L602.5 31.1L594.1 31.1L585.6 31.1L577.1 31.1L574.3 38.2L574.3 46.7L574.3 55.2L574.3 63.6L574.3 72.1L574.3 80.6L574.3 89.1L574.3 97.6L574.3 106.1L574.3 114.6L574.3 123.1L574.3 131.5L574.3 140.0L574.3 148.5L574.3 157.0L574.3 165.5L574.3 174.0L574.3 182.5L574.3 190.9L574.3 199.4L574.3 207.9L574.3 216.4L574.3 224.9L574.3 233.4L574.3 241.9L574.3 250.4L574.3 258.8L574.3 267.3L574.3 275.8L574.3 284.3L574.3 292.8L574.3 301.3L574.3 309.8L574.3 318.2L574.3 326.7L574.3 335.2L574.3 343.7L574.3 352.2L574.3 360.7L574.3 369.2L574.3 377.7L574.3 386.1L574.3 394.6L574.3 403.1L574.3 411.6L574.3 420.1L574.3 428.6L574.3 437.1L574.3 445.5L574.3 454.0L574.3 462.5L574.3 471.0L574.3 479.5L574.3 488.0L574.3 496.5L574.3 505.0L574.3 513.4L574.3 521.9L574.3 530.4L574.3 538.9L574.3 547.4L574.3 555.9L574.3 564.4L574.3 572.8L574.3 581.3L574.3 589.8L574.3 598.3L574.3 606.8L574.3 615.3L574.3 623.8L574.3 632.2L574.3 640.7L574.3 649.2L574.3 657.7L574.3 666.2L574.3 674.7L574.3 683.2L574.3 691.7L574.3 700.1L574.3 708.6L574.3 717.1L574.3 725.6L574.3 734.1L574.3 742.6L574.3 751.1L574.3 759.5L574.3 768.0L574.3 776.5L574.3 785.0L574.3 793.5L574.3 802.0L574.3 810.5L574.3 819.0L574.3 827.4L574.3 835.9L574.3 844.4L575.7 852.9L575.7 861.4L575.7 869.9L577.1 878.4L577.1 886.8L578.5 895.3L579.9 903.8L582.7 912.3L584.2 920.8L588.4 929.3L592.6 937.8L599.7 946.3L608.2 953.3L616.7 959.0L625.2 961.8L633.7 964.6L642.1 966.1L650.6 967.5L659.1 968.9L667.6 970.3L676.1 970.3L684.6 971.7L693.1 971.7L701.6 973.1L710.0 973.1L718.5 973.1L727.0 973.1L728.4 980.2L728.4 988.7L728.4 997.2L722.8 1000.0L714.3 998.6L705.8 998.6L697.3 998.6L688.8 998.6L680.3 998.6L671.9 998.6L663.4 998.6L654.9 997.2L646.4 997.2L637.9 997.2L629.4 997.2L620.9 997.2L612.4 997.2L604.0 997.2L595.5 997.2L587.0 997.2L578.5 997.2L570.0 995.8L561.5 995.8L553.0 995.8L544.6 995.8L536.1 995.8L527.6 995.8L519.1 995.8L510.6 995.8L502.1 995.8L493.6 995.8L485.1 995.8L476.7 995.8L468.2 995.8L459.7 995.8L451.2 995.8L442.7 995.8L434.2 995.8L425.7 995.8L417.3 995.8L408.8 995.8L400.3 995.8L391.8 995.8L383.3 995.8L374.8 995.8L366.3 995.8L357.9 995.8L349.4 995.8L340.9 995.8L332.4 995.8L323.9 995.8L315.4 995.8L306.9 997.2L298.4 997.2L290.0 997.2L281.5 997.2L273.0 997.2L264.5 997.2L256.0 997.2L247.5 997.2L239.0 997.2L230.6 998.6L222.1 998.6L213.6 998.6L205.1 998.6L196.6 998.6L188.1 998.6L179.6 1000.0L171.1 1000.0L166.9 995.8L166.9 987.3L166.9 978.8L169.7 973.1L178.2 973.1L186.7 973.1L195.2 973.1L203.7 971.7L212.2 971.7L220.7 970.3L229.1 970.3L237.6 968.9L246.1 967.5L254.6 966.1L263.1 963.2L271.6 960.4L280.1 957.6L288.5 951.9L297.0 944.8L304.1 936.4L308.3 927.9L311.2 919.4L314.0 910.9L315.4 902.4L316.8 893.9L318.2 885.4L319.7 876.9L319.7 868.5L319.7 860.0L321.1 851.5L321.1 843.0L321.1 834.5L321.1 826.0L321.1 817.5L321.1 809.1L321.1 800.6L321.1 792.1L321.1 783.6L321.1 775.1L321.1 766.6L321.1 758.1L321.1 749.6L321.1 741.2L321.1 732.7L321.1 724.2L321.1 715.7L321.1 707.2L321.1 698.7L321.1 690.2L321.1 681.8L321.1 673.3L321.1 664.8L321.1 656.3L321.1 647.8L321.1 639.3L321.1 630.8L321.1 622.3L321.1 613.9L321.1 605.4L321.1 596.9L321.1 588.4L321.1 579.9L321.1 571.4L321.1 562.9L321.1 554.5L321.1 546.0L321.1 537.5L321.1 529.0L321.1 520.5L321.1 512.0L321.1 503.5L321.1 495.0L321.1 486.6L321.1 478.1L321.1 469.6L321.1 461.1L321.1 452.6L321.1 444.1L321.1 435.6L321.1 427.2L321.1 418.7L321.1 410.2L321.1 401.7L321.1 393.2L321.1 384.7L321.1 376.2L321.1 367.8L321.1 359.3L321.1 350.8L321.1 342.3L321.1 333.8L321.1 325.3L321.1 316.8L321.1 308.3L321.1 299.9L321.1 291.4L321.1 282.9L321.1 274.4L321.1 265.9L321.1 257.4L321.1 248.9L321.1 240.5L321.1 232.0L321.1 223.5L321.1 215.0L321.1 206.5L321.1 198.0L321.1 189.5L321.1 181.0L321.1 172.6L321.1 164.1L321.1 155.6L321.1 147.1L321.1 138.6L321.1 130.1L321.1 121.6L321.1 113.2L321.1 104.7L321.1 96.2L321.1 87.7L321.1 79.2L321.1 70.7L321.1 62.2L321.1 53.7L321.1 45.3L316.8 31.1L308.3 31.1L299.9 31.1L291.4 31.1L282.9 32.5L274.4 32.5L265.9 33.9L257.4 36.8L248.9 38.2L240.5 41.0L232.0 43.8L223.5 46.7L215.0 50.9L206.5 55.2L198.0 59.4L189.5 65.1L181.0 70.7L172.6 77.8L164.1 84.9L155.6 93.4L148.5 101.8L141.4 110.3L134.4 118.8L127.3 127.3L121.6 135.8L116.0 144.3L111.7 152.8L106.1 161.2L101.8 169.7L97.6 178.2L93.4 186.7L89.1 195.2L84.9 203.7L82.0 212.2L79.2 220.7L75.0 229.1L72.1 237.6L69.3 246.1L66.5 254.6L63.6 263.1L60.8 271.6L58.0 280.1L55.2 288.5L52.3 297.0L50.9 305.5L48.1 314.0L46.7 322.5L43.8 331.0L41.0 339.5L39.6 347.9L38.2 356.4L33.9 363.5L25.5 363.5L17.0 363.5L8.5 363.5L5.7 357.9L7.1 349.4L7.1 340.9L8.5 332.4L8.5 323.9L8.5 315.4L8.5 306.9L8.5 298.4L9.9 290.0L9.9 281.5L9.9 273.0L9.9 264.5L9.9 256.0L9.9 247.5L9.9 239.0L8.5 230.6L8.5 222.1L8.5 213.6L8.5 205.1L8.5 196.6L8.5 188.1L8.5 179.6L8.5 171.1L7.1 162.7L7.1 154.2L7.1 145.7L7.1 137.2L7.1 128.7L5.7 120.2L5.7 111.7L5.7 103.3L5.7 94.8L4.2 86.3L4.2 77.8L4.2 69.3L2.8 60.8L2.8 52.3L2.8 43.8L1.4 35.4L1.4 26.9L1.4 18.4L0.0 9.9L0.0 1.4Z" fill="#2C2418" transform="translate(270.35555 243.5) scale(0.513)"></path><path d="M150 610 C400 570 620 530 850 510" fill="none" stroke="#C4634A" stroke-width="34" stroke-linecap="round"></path></svg>